<svg xmlns="http://www.w3.org/2000/svg" width="258" height="26" viewBox="0 0 258 26" fill="none">
<path d="M9.96174 9.67119L12.8563 7.4662L14.1415 4.69308C13.2858 3.05967 11.8082 1.80197 10.0316 1.24414L7.36041 3.04822L5.84497 6.22225C6.33752 5.62547 7.07633 5.24976 7.90679 5.24976C9.39817 5.24976 10.5906 6.45592 10.5906 7.93354C10.5894 8.59447 10.3512 9.20384 9.96174 9.67119Z" fill="#4285F4"/>
<path d="M7.90608 0.919922C5.74117 0.919922 3.82253 1.89241 2.52588 3.43532L3.76068 5.45818L5.84541 6.22334C5.85801 6.21074 10.0332 1.24523 10.0332 1.24523C9.35852 1.03676 8.6449 0.919922 7.90608 0.919922Z" fill="#1A73E8"/>
<path d="M9.96179 9.67143C9.46924 10.2545 8.73615 10.6313 7.90569 10.6313C6.41431 10.6313 5.22189 9.42515 5.22189 7.94753C5.22189 7.31181 5.48077 6.67723 5.84387 6.22363L2.76833 8.42289L1.57935 11.3048C2.31816 12.9119 3.53693 14.2085 4.79464 15.8293L8.09126 13.2063L9.96179 9.67143Z" fill="#FBBC04"/>
<path d="M14.9465 7.94733C14.9465 6.76752 14.6487 5.6656 14.1424 4.69312L4.79437 15.8291C5.20903 16.3606 5.61108 16.9311 6.01314 17.553C7.44037 19.758 7.01197 21.0799 7.92032 21.0799C8.84127 21.0799 8.43921 19.758 9.8653 17.553C12.2112 13.8842 14.9465 12.2118 14.9465 7.94733Z" fill="#34A853"/>
<path d="M5.84555 6.22242L2.52602 3.43555C1.50199 4.6543 0.880005 6.23616 0.880005 7.94746C0.880005 9.2693 1.13888 10.346 1.57988 11.3048L5.84555 6.22242Z" fill="#EA4335"/>
<path d="M33.8128 19.9775C32.6021 19.9775 31.4621 19.7573 30.3929 19.3171C29.3236 18.8768 28.3802 18.2636 27.5626 17.4774C26.7606 16.6754 26.1238 15.7399 25.6521 14.6706C25.1961 13.5857 24.9681 12.4143 24.9681 11.1563C24.9681 9.89843 25.1961 8.73486 25.6521 7.66563C26.1238 6.58068 26.7606 5.64511 27.5626 4.85891C28.3802 4.05699 29.3236 3.4359 30.3929 2.99563C31.4621 2.55536 32.6021 2.33522 33.8128 2.33522C35.1022 2.33522 36.2893 2.56322 37.3743 3.01921C38.475 3.47521 39.3948 4.11203 40.1338 4.92967L38.3413 6.69861C37.9797 6.28979 37.563 5.94386 37.0913 5.66083C36.6353 5.3778 36.1321 5.16553 35.5818 5.02401C35.0314 4.86678 34.4418 4.78816 33.8128 4.78816C32.9794 4.78816 32.1854 4.93753 31.4306 5.23629C30.6759 5.53504 30.0076 5.96745 29.4258 6.53351C28.8598 7.08385 28.4116 7.75212 28.0814 8.53831C27.7512 9.30879 27.5861 10.1815 27.5861 11.1563C27.5861 12.1312 27.7512 13.0118 28.0814 13.798C28.4274 14.5684 28.8834 15.2367 29.4494 15.8028C30.0312 16.3531 30.6995 16.7777 31.4542 17.0764C32.209 17.3752 33.003 17.5245 33.8364 17.5245C34.6069 17.5245 35.3223 17.4145 35.9827 17.1943C36.6588 16.9742 37.2485 16.6597 37.7517 16.2509C38.2548 15.8421 38.6636 15.3468 38.9781 14.765C39.2926 14.1675 39.4892 13.4992 39.5678 12.7602H33.7892V10.4724H41.9971C42.0286 10.661 42.06 10.8812 42.0915 11.1328C42.1229 11.3686 42.1386 11.5966 42.1386 11.8168V11.8403C42.1386 13.0511 41.9264 14.1596 41.5018 15.1659C41.093 16.1723 40.5191 17.0371 39.78 17.7604C39.041 18.468 38.1605 19.0183 37.1384 19.4114C36.1321 19.7888 35.0236 19.9775 33.8128 19.9775ZM49.1435 19.9775C47.9013 19.9775 46.8085 19.6944 45.865 19.1284C44.9216 18.5623 44.1826 17.7997 43.6479 16.8405C43.1133 15.8657 42.846 14.7807 42.846 13.5857C42.846 12.3907 43.1133 11.3136 43.6479 10.3544C44.1826 9.37954 44.9216 8.60907 45.865 8.04301C46.8085 7.47695 47.9013 7.19392 49.1435 7.19392C50.3699 7.19392 51.4549 7.48481 52.3983 8.0666C53.3418 8.63266 54.0808 9.39527 54.6154 10.3544C55.15 11.3136 55.4173 12.3907 55.4173 13.5857C55.4173 14.7807 55.15 15.8657 54.6154 16.8405C54.0808 17.7997 53.3418 18.5623 52.3983 19.1284C51.4549 19.6944 50.3699 19.9775 49.1435 19.9775ZM49.1435 17.6425C49.8039 17.6425 50.4171 17.4852 50.9832 17.1708C51.5492 16.8405 52.0052 16.3767 52.3511 15.7792C52.7128 15.1659 52.8936 14.4348 52.8936 13.5857C52.8936 12.7366 52.7128 12.0133 52.3511 11.4158C52.0052 10.8026 51.5492 10.3387 50.9832 10.0242C50.4171 9.69402 49.8039 9.52892 49.1435 9.52892C48.4831 9.52892 47.862 9.69402 47.2802 10.0242C46.7141 10.3387 46.2503 10.8026 45.8886 11.4158C45.5427 12.0133 45.3697 12.7366 45.3697 13.5857C45.3697 14.4348 45.5427 15.1659 45.8886 15.7792C46.2503 16.3767 46.722 16.8405 47.3038 17.1708C47.8855 17.4852 48.4988 17.6425 49.1435 17.6425ZM62.7164 19.9775C61.4742 19.9775 60.3814 19.6944 59.438 19.1284C58.4945 18.5623 57.7555 17.7997 57.2209 16.8405C56.6863 15.8657 56.419 14.7807 56.419 13.5857C56.419 12.3907 56.6863 11.3136 57.2209 10.3544C57.7555 9.37954 58.4945 8.60907 59.438 8.04301C60.3814 7.47695 61.4742 7.19392 62.7164 7.19392C63.9429 7.19392 65.0278 7.48481 65.9713 8.0666C66.9147 8.63266 67.6537 9.39527 68.1883 10.3544C68.7229 11.3136 68.9903 12.3907 68.9903 13.5857C68.9903 14.7807 68.7229 15.8657 68.1883 16.8405C67.6537 17.7997 66.9147 18.5623 65.9713 19.1284C65.0278 19.6944 63.9429 19.9775 62.7164 19.9775ZM62.7164 17.6425C63.3768 17.6425 63.99 17.4852 64.5561 17.1708C65.1222 16.8405 65.5782 16.3767 65.9241 15.7792C66.2857 15.1659 66.4666 14.4348 66.4666 13.5857C66.4666 12.7366 66.2857 12.0133 65.9241 11.4158C65.5782 10.8026 65.1222 10.3387 64.5561 10.0242C63.99 9.69402 63.3768 9.52892 62.7164 9.52892C62.056 9.52892 61.4349 9.69402 60.8531 10.0242C60.2871 10.3387 59.8232 10.8026 59.4616 11.4158C59.1156 12.0133 58.9427 12.7366 58.9427 13.5857C58.9427 14.4348 59.1156 15.1659 59.4616 15.7792C59.8232 16.3767 60.2949 16.8405 60.8767 17.1708C61.4585 17.4852 62.0717 17.6425 62.7164 17.6425ZM76.0535 25.072C75 25.072 74.088 24.8991 73.3175 24.5531C72.5628 24.2229 71.9495 23.7905 71.4778 23.2559C71.0061 22.737 70.668 22.2024 70.4636 21.6521L72.8222 20.6615C73.0738 21.2904 73.4748 21.8014 74.0251 22.1945C74.5912 22.6034 75.2673 22.8078 76.0535 22.8078C77.1699 22.8078 78.0426 22.4776 78.6715 21.8172C79.3005 21.1568 79.615 20.2212 79.615 19.0105V17.8547H79.4734C79.0961 18.4051 78.5772 18.8532 77.9168 19.1991C77.2564 19.5451 76.4938 19.718 75.6289 19.718C74.6069 19.718 73.6635 19.4586 72.7986 18.9397C71.9495 18.4208 71.2656 17.6975 70.7467 16.7698C70.2435 15.8264 69.9919 14.7257 69.9919 13.4678C69.9919 12.1941 70.2435 11.0935 70.7467 10.1657C71.2656 9.2223 71.9495 8.49114 72.7986 7.97225C73.6635 7.45336 74.6069 7.19392 75.6289 7.19392C76.4938 7.19392 77.2564 7.36688 77.9168 7.71281C78.5772 8.04301 79.0961 8.499 79.4734 9.08079H79.615V7.57129H82.0443V18.9633C82.0443 20.2684 81.7849 21.3769 81.266 22.2889C80.7628 23.2009 80.0631 23.8927 79.1668 24.3644C78.2706 24.8362 77.2328 25.072 76.0535 25.072ZM76.0771 17.4066C76.706 17.4066 77.2878 17.2572 77.8224 16.9585C78.3728 16.644 78.8052 16.1959 79.1197 15.6141C79.4499 15.0166 79.615 14.3011 79.615 13.4678C79.615 12.5872 79.4499 11.8561 79.1197 11.2743C78.8052 10.6925 78.3728 10.2522 77.8224 9.95347C77.2878 9.65471 76.706 9.50533 76.0771 9.50533C75.4481 9.50533 74.8585 9.65471 74.3081 9.95347C73.7735 10.2522 73.3411 10.7004 73.0109 11.2979C72.6807 11.8796 72.5156 12.6029 72.5156 13.4678C72.5156 14.3169 72.6807 15.0402 73.0109 15.6377C73.3411 16.2195 73.7735 16.6597 74.3081 16.9585C74.8585 17.2572 75.4481 17.4066 76.0771 17.4066ZM84.1046 19.6001V2.7126H86.6518V19.6001H84.1046ZM94.0919 19.9775C92.9126 19.9775 91.8591 19.7023 90.9314 19.152C90.0037 18.6016 89.2725 17.8469 88.7379 16.8877C88.219 15.9286 87.9596 14.8357 87.9596 13.6093C87.9596 12.4614 88.2112 11.4001 88.7143 10.4252C89.2175 9.4503 89.9172 8.67197 90.8135 8.09018C91.7255 7.49267 92.7711 7.19392 93.9504 7.19392C95.1926 7.19392 96.2461 7.46122 97.1109 7.99584C97.9914 8.53045 98.6597 9.26161 99.1157 10.1893C99.5717 11.117 99.7997 12.1627 99.7997 13.3262C99.7997 13.4992 99.7918 13.6565 99.7761 13.798C99.7761 13.9395 99.7682 14.0496 99.7525 14.1282H90.4597C90.5226 14.7886 90.6877 15.3625 90.955 15.8499C91.3009 16.4632 91.7569 16.927 92.323 17.2415C92.889 17.556 93.5023 17.7132 94.1627 17.7132C94.9646 17.7132 95.6329 17.5324 96.1675 17.1708C96.7178 16.7934 97.1502 16.3295 97.4647 15.7792L99.5638 16.7934C99.0449 17.7368 98.3374 18.5073 97.4411 19.1048C96.5448 19.6866 95.4284 19.9775 94.0919 19.9775ZM90.6012 12.2177H97.276C97.2603 11.919 97.1817 11.6045 97.0401 11.2743C96.8986 10.9284 96.6942 10.6139 96.4269 10.3308C96.1596 10.0478 95.8215 9.81981 95.4127 9.64685C95.0039 9.45816 94.5243 9.36382 93.974 9.36382C93.2821 9.36382 92.6689 9.54464 92.1343 9.9063C91.5997 10.2522 91.183 10.7397 90.8842 11.3686C90.7584 11.6359 90.6641 11.919 90.6012 12.2177ZM106.677 19.6001V2.7126H110.168L115.097 15.5669H115.239L120.192 2.7126H123.683V19.6001H121.135V10.0478L121.277 7.0524H121.135L116.206 19.6001H114.154L109.224 7.0524H109.083L109.224 10.0478V19.6001H106.677ZM129.795 19.9775C128.93 19.9775 128.16 19.8045 127.484 19.4586C126.823 19.1127 126.297 18.6409 125.904 18.0434C125.526 17.4302 125.338 16.7305 125.338 15.9443C125.338 15.0795 125.558 14.3483 125.998 13.7508C126.454 13.1533 127.059 12.6973 127.814 12.3828C128.569 12.0683 129.402 11.9111 130.314 11.9111C130.817 11.9111 131.281 11.9504 131.706 12.029C132.146 12.0919 132.523 12.1705 132.838 12.2649C133.168 12.3592 133.427 12.4614 133.616 12.5715V11.9347C133.616 11.1485 133.333 10.5195 132.767 10.0478C132.201 9.57609 131.47 9.34023 130.574 9.34023C129.96 9.34023 129.379 9.48175 128.828 9.76478C128.278 10.0321 127.838 10.4016 127.507 10.8733L125.762 9.52892C126.108 9.04148 126.525 8.62479 127.012 8.27887C127.515 7.93294 128.073 7.66563 128.687 7.47695C129.316 7.28826 129.968 7.19392 130.644 7.19392C132.39 7.19392 133.734 7.62633 134.678 8.49114C135.621 9.34023 136.093 10.5353 136.093 12.0762V19.6001H133.616V18.1142H133.475C133.27 18.4287 132.987 18.7274 132.626 19.0105C132.28 19.2935 131.863 19.5215 131.375 19.6944C130.904 19.8831 130.377 19.9775 129.795 19.9775ZM130.243 17.9019C130.904 17.9019 131.486 17.7447 131.989 17.4302C132.508 17.1157 132.909 16.7069 133.192 16.2037C133.475 15.6848 133.616 15.1266 133.616 14.5291C133.27 14.3247 132.846 14.1596 132.343 14.0338C131.855 13.8923 131.336 13.8216 130.786 13.8216C129.748 13.8216 129.009 14.026 128.569 14.4348C128.129 14.8436 127.908 15.3546 127.908 15.9679C127.908 16.5339 128.121 16.9978 128.545 17.3594C128.97 17.7211 129.536 17.9019 130.243 17.9019ZM138.166 24.6947V7.57129H140.548V9.19872H140.69C140.91 8.85279 141.201 8.53045 141.562 8.2317C141.94 7.91722 142.38 7.66563 142.883 7.47695C143.386 7.28826 143.944 7.19392 144.558 7.19392C145.658 7.19392 146.641 7.46909 147.506 8.01942C148.371 8.56976 149.055 9.32451 149.558 10.2837C150.077 11.2428 150.336 12.3435 150.336 13.5857C150.336 14.8279 150.077 15.9286 149.558 16.8877C149.055 17.8469 148.371 18.6016 147.506 19.152C146.641 19.7023 145.658 19.9775 144.558 19.9775C143.646 19.9775 142.852 19.7731 142.175 19.3642C141.499 18.9554 141.004 18.4994 140.69 17.9963H140.548L140.69 19.6709V24.6947H138.166ZM144.18 17.6425C144.809 17.6425 145.399 17.4774 145.949 17.1472C146.515 16.817 146.963 16.3452 147.294 15.732C147.64 15.1188 147.812 14.4033 147.812 13.5857C147.812 12.7523 147.64 12.0369 147.294 11.4394C146.963 10.8261 146.515 10.3544 145.949 10.0242C145.399 9.69402 144.809 9.52892 144.18 9.52892C143.551 9.52892 142.962 9.69402 142.411 10.0242C141.861 10.3544 141.413 10.8261 141.067 11.4394C140.721 12.0369 140.548 12.7523 140.548 13.5857C140.548 14.4191 140.721 15.1424 141.067 15.7556C141.413 16.3531 141.861 16.817 142.411 17.1472C142.962 17.4774 143.551 17.6425 144.18 17.6425ZM156.241 19.9775C155.282 19.9775 154.449 19.836 153.741 19.5529C153.034 19.2542 152.452 18.8611 151.996 18.3736C151.54 17.8705 151.202 17.328 150.982 16.7462L153.27 15.7556C153.553 16.4003 153.954 16.8956 154.473 17.2415C155.007 17.5717 155.62 17.7368 156.312 17.7368C156.941 17.7368 157.484 17.6267 157.94 17.4066C158.396 17.1708 158.624 16.7934 158.624 16.2745C158.624 15.9443 158.514 15.677 158.293 15.4726C158.089 15.2524 157.806 15.0716 157.444 14.9301C157.098 14.7886 156.697 14.6628 156.241 14.5527L154.803 14.2225C154.237 14.081 153.694 13.8609 153.175 13.5621C152.672 13.2476 152.263 12.8545 151.949 12.3828C151.634 11.9111 151.477 11.3529 151.477 10.7082C151.477 9.98491 151.682 9.36382 152.09 8.84493C152.515 8.31032 153.081 7.90149 153.789 7.61846C154.496 7.33543 155.259 7.19392 156.076 7.19392C156.831 7.19392 157.515 7.29612 158.128 7.50053C158.757 7.68922 159.3 7.98011 159.756 8.37321C160.227 8.75059 160.597 9.2223 160.864 9.78837L158.671 10.779C158.404 10.2444 158.042 9.87485 157.586 9.67044C157.13 9.4503 156.635 9.34023 156.1 9.34023C155.502 9.34023 154.999 9.46602 154.59 9.71761C154.197 9.95347 154.001 10.2679 154.001 10.661C154.001 11.0699 154.174 11.3922 154.52 11.6281C154.881 11.8639 155.322 12.0526 155.841 12.1941L157.586 12.6187C158.781 12.9174 159.677 13.3734 160.275 13.9867C160.872 14.5842 161.171 15.3153 161.171 16.1801C161.171 16.9506 160.951 17.6267 160.511 18.2085C160.07 18.7746 159.473 19.2149 158.718 19.5293C157.979 19.8281 157.153 19.9775 156.241 19.9775ZM167.908 19.6001V2.7126H173.711C174.733 2.7126 175.66 2.93273 176.494 3.373C177.327 3.79755 177.987 4.40292 178.475 5.18912C178.978 5.95959 179.23 6.85585 179.23 7.87791C179.23 8.88424 178.978 9.7805 178.475 10.5667C177.987 11.3529 177.327 11.9661 176.494 12.4064C175.66 12.8309 174.733 13.0432 173.711 13.0432H170.503V19.6001H167.908ZM170.503 10.5903H173.781C174.395 10.5903 174.913 10.4645 175.338 10.2129C175.762 9.9456 176.085 9.60754 176.305 9.19872C176.541 8.77417 176.659 8.3339 176.659 7.87791C176.659 7.42191 176.541 6.98951 176.305 6.58068C176.085 6.17186 175.762 5.8338 175.338 5.56649C174.913 5.29918 174.395 5.16553 173.781 5.16553H170.503V10.5903ZM180.896 19.6001V2.7126H183.443V19.6001H180.896ZM189.398 19.9775C188.533 19.9775 187.762 19.8045 187.086 19.4586C186.426 19.1127 185.899 18.6409 185.506 18.0434C185.128 17.4302 184.94 16.7305 184.94 15.9443C184.94 15.0795 185.16 14.3483 185.6 13.7508C186.056 13.1533 186.662 12.6973 187.416 12.3828C188.171 12.0683 189.004 11.9111 189.916 11.9111C190.42 11.9111 190.883 11.9504 191.308 12.029C191.748 12.0919 192.126 12.1705 192.44 12.2649C192.77 12.3592 193.03 12.4614 193.218 12.5715V11.9347C193.218 11.1485 192.935 10.5195 192.369 10.0478C191.803 9.57609 191.072 9.34023 190.176 9.34023C189.563 9.34023 188.981 9.48175 188.431 9.76478C187.88 10.0321 187.44 10.4016 187.11 10.8733L185.364 9.52892C185.71 9.04148 186.127 8.62479 186.614 8.27887C187.118 7.93294 187.676 7.66563 188.289 7.47695C188.918 7.28826 189.57 7.19392 190.247 7.19392C191.992 7.19392 193.336 7.62633 194.28 8.49114C195.223 9.34023 195.695 10.5353 195.695 12.0762V19.6001H193.218V18.1142H193.077C192.873 18.4287 192.589 18.7274 192.228 19.0105C191.882 19.2935 191.465 19.5215 190.978 19.6944C190.506 19.8831 189.979 19.9775 189.398 19.9775ZM189.846 17.9019C190.506 17.9019 191.088 17.7447 191.591 17.4302C192.11 17.1157 192.511 16.7069 192.794 16.2037C193.077 15.6848 193.218 15.1266 193.218 14.5291C192.873 14.3247 192.448 14.1596 191.945 14.0338C191.457 13.8923 190.938 13.8216 190.388 13.8216C189.35 13.8216 188.611 14.026 188.171 14.4348C187.731 14.8436 187.511 15.3546 187.511 15.9679C187.511 16.5339 187.723 16.9978 188.147 17.3594C188.572 17.7211 189.138 17.9019 189.846 17.9019ZM196.736 9.78837V7.57129H198.835V4.17492H201.382V7.57129H206.5V6.58068C206.5 5.71587 206.681 4.9847 207.043 4.3872C207.405 3.77396 207.9 3.31011 208.529 2.99563C209.158 2.68115 209.857 2.52391 210.628 2.52391C211.053 2.52391 211.414 2.55536 211.713 2.61825C212.027 2.66543 212.287 2.72832 212.491 2.80694V5.28346C212.287 5.20484 212.051 5.12622 211.784 5.0476C211.532 4.95326 211.218 4.90609 210.84 4.90609C210.353 4.90609 209.928 5.07119 209.567 5.40139C209.205 5.71587 209.024 6.17972 209.024 6.79296V7.57129H212.043V9.78837H209.024V19.6001H206.5V9.78837H201.382V15.5669C201.382 16.1487 201.5 16.6047 201.736 16.9349C201.988 17.2494 202.396 17.4066 202.963 17.4066C203.23 17.4066 203.458 17.3752 203.647 17.3123C203.835 17.2336 204.024 17.1393 204.213 17.0292V19.4822C203.977 19.5765 203.733 19.6473 203.481 19.6944C203.23 19.7573 202.9 19.7888 202.491 19.7888C201.374 19.7888 200.486 19.4664 199.826 18.8218C199.165 18.1614 198.835 17.2572 198.835 16.1094V9.78837H196.736ZM218.684 19.9775C217.441 19.9775 216.349 19.6944 215.405 19.1284C214.462 18.5623 213.723 17.7997 213.188 16.8405C212.654 15.8657 212.386 14.7807 212.386 13.5857C212.386 12.3907 212.654 11.3136 213.188 10.3544C213.723 9.37954 214.462 8.60907 215.405 8.04301C216.349 7.47695 217.441 7.19392 218.684 7.19392C219.91 7.19392 220.995 7.48481 221.939 8.0666C222.882 8.63266 223.621 9.39527 224.156 10.3544C224.69 11.3136 224.957 12.3907 224.957 13.5857C224.957 14.7807 224.69 15.8657 224.156 16.8405C223.621 17.7997 222.882 18.5623 221.939 19.1284C220.995 19.6944 219.91 19.9775 218.684 19.9775ZM218.684 17.6425C219.344 17.6425 219.957 17.4852 220.523 17.1708C221.089 16.8405 221.545 16.3767 221.891 15.7792C222.253 15.1659 222.434 14.4348 222.434 13.5857C222.434 12.7366 222.253 12.0133 221.891 11.4158C221.545 10.8026 221.089 10.3387 220.523 10.0242C219.957 9.69402 219.344 9.52892 218.684 9.52892C218.023 9.52892 217.402 9.69402 216.82 10.0242C216.254 10.3387 215.79 10.8026 215.429 11.4158C215.083 12.0133 214.91 12.7366 214.91 13.5857C214.91 14.4348 215.083 15.1659 215.429 15.7792C215.79 16.3767 216.262 16.8405 216.844 17.1708C217.426 17.4852 218.039 17.6425 218.684 17.6425ZM226.366 19.6001V7.57129H228.771V9.34023H228.913C229.102 8.93141 229.369 8.56976 229.715 8.25528C230.077 7.9408 230.485 7.68922 230.941 7.50053C231.413 7.31185 231.9 7.2175 232.404 7.2175C232.734 7.2175 233.009 7.24109 233.229 7.28826C233.465 7.31971 233.677 7.37474 233.866 7.45336V10.095C233.567 9.96919 233.261 9.86699 232.946 9.78837C232.647 9.70975 232.333 9.67044 232.003 9.67044C231.405 9.67044 230.871 9.83554 230.399 10.1657C229.943 10.4802 229.581 10.9048 229.314 11.4394C229.047 11.974 228.913 12.5715 228.913 13.2319V19.6001H226.366ZM235.125 19.6001V7.57129H237.53V9.2223H237.672C237.908 8.82921 238.214 8.48328 238.592 8.18452C238.969 7.88577 239.394 7.64991 239.865 7.47695C240.353 7.28826 240.856 7.19392 241.375 7.19392C242.271 7.19392 243.034 7.40619 243.663 7.83074C244.292 8.25528 244.74 8.7899 245.007 9.43458C245.4 8.80562 245.935 8.27887 246.611 7.85432C247.287 7.41405 248.113 7.19392 249.088 7.19392C250.503 7.19392 251.556 7.62633 252.248 8.49114C252.94 9.34023 253.286 10.4724 253.286 11.8875V19.6001H250.762V12.3121C250.762 11.3372 250.55 10.6296 250.125 10.1893C249.716 9.74906 249.143 9.52892 248.404 9.52892C247.822 9.52892 247.311 9.69402 246.87 10.0242C246.43 10.3387 246.084 10.7711 245.833 11.3214C245.597 11.8718 245.479 12.485 245.479 13.1611V19.6001H242.955V12.3121C242.955 11.3529 242.743 10.6532 242.318 10.2129C241.894 9.75692 241.296 9.52892 240.526 9.52892C239.976 9.52892 239.48 9.69402 239.04 10.0242C238.615 10.3544 238.277 10.7947 238.026 11.345C237.79 11.8954 237.672 12.5086 237.672 13.1847V19.6001H235.125Z" fill="#202124"/>
</svg>